<?xml version="1.0" encoding="UTF-8" standalone="no"?>
<svg
   version="1.1"
   width="112"
   height="112"
   id="svg18"
   sodipodi:docname="LargeBarrackIcon.svg"
   inkscape:version="1.3.2 (091e20e, 2023-11-25, custom)"
   inkscape:export-filename="LargeBarrackIcon.png"
   inkscape:export-xdpi="96"
   inkscape:export-ydpi="96"
   xmlns:inkscape="http://www.inkscape.org/namespaces/inkscape"
   xmlns:sodipodi="http://sodipodi.sourceforge.net/DTD/sodipodi-0.dtd"
   xmlns="http://www.w3.org/2000/svg"
   xmlns:svg="http://www.w3.org/2000/svg">
  <defs
     id="defs18" />
  <sodipodi:namedview
     id="namedview18"
     pagecolor="#ffffff"
     bordercolor="#000000"
     borderopacity="0.25"
     inkscape:showpageshadow="2"
     inkscape:pageopacity="0.0"
     inkscape:pagecheckerboard="0"
     inkscape:deskcolor="#d1d1d1"
     inkscape:zoom="7.4732143"
     inkscape:cx="40.076464"
     inkscape:cy="51.450418"
     inkscape:window-width="1920"
     inkscape:window-height="1051"
     inkscape:window-x="-9"
     inkscape:window-y="-9"
     inkscape:window-maximized="1"
     inkscape:current-layer="svg18" />
  <path
     d="m 14.501202,-0.34169655 c 0.153555,-0.37789398 -1.296525,0.33426966 8.254856,0.27475625 6.420407,0.01813029 12.088834,0.59835658 18.298385,2.252243 l -0.487167,1.6732788 c -0.567049,2.5726993 -0.6734,4.9201012 -0.718155,7.5542605 l -0.06044,3.153869 -0.05064,3.384217 -0.06297,3.480407 c -0.06537,3.667929 -0.124323,7.335929 -0.183121,11.003968 -0.0432,2.486986 -0.08681,4.973966 -0.130859,7.460937 -0.107059,6.096279 -0.208849,12.192629 -0.306641,18.289063 -3.099435,1.549717 -6.379436,1.162914 -9.78125,1.167968 l -2.331176,0.01009 c -1.627395,0.0051 -3.2548,0.0074 -4.882203,0.0072 -2.495452,0.0022 -4.990465,0.02035 -7.485839,0.03931 -1.579426,0.0029 -3.158854,0.0049 -4.7382816,0.0059 l -2.2696534,0.02177 -26.460815,0.943069 -2.341263,-0.0086 c -2.465831,-0.01119 -4.931298,-0.03629 -7.397019,-0.06174 -1.67252,-0.01003 -3.345047,-0.01916 -5.017578,-0.02734 -4.098447,-0.02204 -8.196623,-0.05656 -12.294922,-0.09766 -1.237281,-2.474564 -1.151227,-4.168719 -1.189453,-6.937012 l -0.05066,-3.115204 -0.04114,-3.377472 -0.05579,-3.460235 c -0.05889,-3.661639 -0.111633,-7.323325 -0.162964,-10.985077 -0.06762,-4.809996 -0.141335,-9.619841 -0.21875,-14.429688 l -0.04114,-3.365204 -0.05066,-3.134307 -0.03796,-2.7541204 c -0.07525,-2.4347435 -0.07525,-2.4347435 -0.72583,-4.7039184 l -0.42566,-1.7377625 c 2.183033,-2.18303286 7.166746,-1.42473248 10.199219,-1.55078121 l 2.946701,-0.12678527 c 5.964938,-0.23266244 12.78353,-0.95147122 13.090785,-0.84464924 1.10611,0.38455678 -1.20267,0.77966645 -1.462637,1.40330492 -0.21869,0.5246189 -0.212828,1.1898878 0.02761,1.7049025 0.530835,1.13704 2.846472,2.4636166 2.846472,2.4636166 0,0 -2.406176,0.3891636 -21.648148,0.9504247 l 1,49.0000003 h 30 16.0000004 l 29.9999996,-1 V 5.1853027 C 14.796415,5.1240416 13.659487,4.9603466 13.659487,4.9603466 c 0,0 2.420796,-1.3376378 2.863507,-2.5325018 C 16.651472,2.0810868 16.70703,1.4842703 16.371479,1.3288579 15.556416,0.95135696 14.120891,0.59413916 14.501202,-0.34169655 Z"
     fill="#937f54"
     transform="translate(59.945557,27.814697)"
     id="path3"
     sodipodi:nodetypes="sccccccccccccccccccccccccccccccccccsaaccccccccass" />
  <path
     style="fill:#937f54;fill-opacity:1;stroke-width:0.0927809"
     d="m 77.770602,57.510336 h 1.93e-4 c 0.930266,0.01706 2.039409,0.457607 2.705511,1.123694 -0.07933,1.108417 -0.296812,2.11975 -0.599994,3.185531 -0.580402,2.137208 -1.064381,4.362371 -0.796442,6.589415 0.506386,0.337581 0.680117,0.401788 1.254532,0.458286 0.219718,0.02163 0.439341,0.04315 0.665596,0.06542 0,0.581982 -0.07812,0.940616 -0.472609,1.376667 -1.140561,1.009381 -1.847745,1.318824 -3.382671,1.283345 -0.656269,-0.05366 -1.037843,-0.150943 -1.555886,-0.565381 -0.765937,-1.068761 -0.795216,-2.116745 -0.763628,-3.392837 3.6e-4,-0.258032 2.64e-4,-0.258101 5.52e-4,-0.521347 0.01208,-0.945502 0.09639,-1.812441 0.33977,-2.727061 0.09879,-0.396462 0.09879,-0.396427 0.07404,-1.03907 -1.262922,1.93856 -2.38716,3.936199 -3.477457,5.976376 -0.08821,0.165077 -0.176687,0.33025 -0.267652,0.500327 -0.187024,0.350798 -0.373279,0.702119 -0.558501,1.05393 -0.0928,0.174308 -0.185583,0.348651 -0.281235,0.528233 -0.08342,0.15777 -0.166591,0.315482 -0.252436,0.478038 -0.224764,0.365344 -0.224764,0.365275 -0.573885,0.539831 -1.115923,0.09621 -1.849094,-0.09118 -2.792846,-0.69821 -0.481649,-0.481638 -0.401503,-0.753078 -0.403738,-1.42904 0.0048,-1.865917 0.309311,-3.71066 0.578237,-5.553064 0.03486,-0.243636 0.06972,-0.487346 0.104333,-0.731011 0.02404,-0.161999 0.04615,-0.323983 0.07019,-0.490902 -1.765676,2.707849 -3.396948,5.469706 -4.958317,8.299514 -0.150965,0.273403 -0.302004,0.546589 -0.453595,0.819626 -0.133653,0.241026 -0.266522,0.482571 -0.39828,0.724665 -0.434605,0.784456 -0.434724,0.784456 -0.822909,0.978547 -1.048564,0.104865 -1.747671,-0.149811 -2.618321,-0.698209 -0.34912,-0.349112 -0.349048,-0.349114 -0.395395,-0.761638 0.0072,-1.344579 0.156494,-2.628658 0.395395,-3.951329 -0.06707,0.134258 -0.06682,0.134301 -0.135107,0.271273 -2.966335,5.902267 -2.966383,5.902223 -5.907334,6.945499 -0.834424,0.229816 -1.444441,0.167914 -2.27059,-0.05997 -0.76144,-0.451227 -1.104809,-0.941668 -1.461839,-1.745619 -0.11154,-0.576662 -0.108347,-1.127256 -0.08732,-1.712815 0.0036,-0.161759 0.0069,-0.323522 0.01079,-0.490179 0.08926,-2.723153 0.706316,-5.337545 1.298203,-7.986563 0.03024,-0.136862 0.06055,-0.273794 0.09168,-0.414795 0.08772,-0.394486 0.177673,-0.788418 0.268368,-1.182227 0.0262,-0.118605 0.05241,-0.237147 0.07933,-0.359345 0.175968,-0.748551 0.401599,-1.437592 0.956999,-1.99297 1.252633,0.0671 2.207588,0.492753 3.316539,1.047223 0.03414,1.109456 -0.06491,2.05976 -0.337415,3.132617 -0.03437,0.142098 -0.06876,0.284145 -0.104333,0.430557 -0.109138,0.449196 -0.220919,0.897687 -0.332702,1.346226 -0.110822,0.449877 -0.220919,0.899883 -0.330731,1.350031 -0.06804,0.278596 -0.13679,0.556987 -0.206496,0.835206 -0.266859,1.083424 -0.459197,2.149533 -0.455734,3.269612 -4.82e-4,0.148971 -8.42e-4,0.297927 -0.0013,0.451398 -0.01684,0.35495 -0.01684,0.355056 0.197603,0.53059 0.73954,-0.0202 1.104815,-0.05712 1.635815,-0.589847 0.118993,-0.183369 0.237988,-0.366834 0.360612,-0.555775 0.06586,-0.101514 0.13197,-0.20294 0.200005,-0.307517 2.076768,-3.278195 3.50104,-7.037651 4.808988,-10.671403 0.06081,-0.167289 0.12164,-0.334483 0.18438,-0.506849 0.05288,-0.14813 0.105772,-0.296247 0.1601,-0.448865 0.156014,-0.360489 0.156014,-0.360517 0.505231,-0.709625 1.227968,0.05012 2.303,0.546221 3.316538,1.221913 0.08366,1.006226 -0.07115,1.889403 -0.311667,2.862969 -0.03149,0.133194 -0.06274,0.266489 -0.0952,0.403744 -0.09928,0.420606 -0.200487,0.840656 -0.302268,1.260692 -0.102161,0.42444 -0.203852,0.849077 -0.304264,1.273921 -0.06227,0.263275 -0.125482,0.526223 -0.189909,0.788996 -0.07212,0.303426 -0.133654,0.609334 -0.193275,0.915484 l 0.174523,0.174501 c 0.0928,-0.157865 0.185823,-0.315742 0.28162,-0.478401 0.902864,-1.524901 1.845991,-3.016264 2.832341,-4.488442 0.22645,-0.338196 0.451481,-0.677278 0.676463,-1.016419 0.631435,-0.948563 1.269532,-1.893492 1.943325,-2.812595 0.08919,-0.122 0.178131,-0.244141 0.270008,-0.369852 0.354314,-0.329166 0.556964,-0.341409 1.033083,-0.325641 0.921324,0.20491 1.747407,0.650944 2.563801,1.112823 -0.129568,1.471648 -0.420758,2.906254 -0.709275,4.352898 -0.07381,0.371783 -0.14736,0.743649 -0.220439,1.115544 -0.06586,0.334181 -0.132215,0.668229 -0.198805,1.002284 -0.103844,0.482024 -0.103844,0.482056 -0.09327,0.860576 0.05072,-0.08657 0.101197,-0.173202 0.15361,-0.262394 1.030871,-1.755125 2.089796,-3.486814 3.217593,-5.181582 0.09807,-0.147864 0.195919,-0.29578 0.297004,-0.448138 2.109628,-3.143356 2.109557,-3.143266 3.05218,-3.261093 z"
     id="path20" />
  <path
     style="fill:#937f54;fill-opacity:1;stroke-width:0.0927809"
     d="m 54.215037,52.833611 c 0.345516,0.0058 0.699251,0.0832 1.070777,0.247355 0.551458,0.432235 0.962552,0.910331 1.276456,1.538129 0.106736,1.031834 -0.01443,1.63358 -0.615764,2.484781 -0.499557,0.598947 -0.941686,0.94433 -1.722238,1.078031 -0.755767,0.04418 -1.326961,0.02043 -1.938614,-0.453391 -0.677951,-0.762705 -0.873822,-1.356234 -0.838629,-2.39001 0.116835,-0.81393 0.404892,-1.499161 1.065704,-2.009461 0.573526,-0.316279 1.126427,-0.505123 1.702308,-0.495434 z"
     id="path19" />
  <path
     style="fill:#937f54;fill-opacity:1;stroke-width:0.0927809"
     d="m 60.576112,45.001079 c 0.171879,-0.0036 0.346092,0.0017 0.524607,0.01756 0.664417,0.537861 1.157533,1.172832 1.570935,1.920122 0.02163,0.381838 0.02163,0.381829 -0.174525,0.698212 -0.87577,0.518602 -1.777407,0.735174 -2.757507,0.964046 -0.165389,0.03981 -0.330804,0.07965 -0.501241,0.120705 -0.528118,0.126906 -1.056642,0.252103 -1.585239,0.377102 -0.690212,0.16426 -1.380112,0.329332 -2.069987,0.495072 -0.168274,0.04044 -0.336644,0.08084 -0.510112,0.122504 -2.032149,0.492366 -4.051006,1.040965 -6.04324,1.676936 -0.322514,0.08387 -0.322596,0.0839 -0.846258,0.0839 -0.0047,0.102147 -0.0089,0.204261 -0.01367,0.30951 -0.127194,1.925121 -0.62351,3.777761 -1.074589,5.647113 -0.390016,1.616777 -0.759644,3.232407 -1.078394,4.864823 -0.610409,3.116022 -1.30619,6.215744 -1.983728,9.317748 -0.149836,0.686875 -0.297219,1.374319 -0.443247,2.062012 -0.03824,0.178923 -0.07657,0.357837 -0.115986,0.542189 -0.07231,0.33856 -0.14397,0.677241 -0.215102,1.016056 -0.623982,2.91041 -0.623934,2.910466 -1.010075,3.29661 -1.490808,0.149067 -2.909417,-0.264485 -4.168967,-1.087635 -0.394168,-0.624329 -0.223637,-1.399587 -0.07248,-2.090099 0.05702,-0.194789 0.113944,-0.389534 0.172698,-0.59021 0.306397,-1.085345 0.574166,-2.175669 0.822341,-3.275773 0.03608,-0.159547 0.07212,-0.319079 0.109254,-0.483474 0.111468,-0.494686 0.22241,-0.989478 0.333248,-1.484307 0.927162,-4.127314 1.916076,-8.23592 2.945603,-12.338915 0.105369,-0.420587 0.210703,-0.841186 0.316033,-1.261784 0.254453,-1.015906 0.509109,-2.031644 0.76399,-3.047442 -1.136428,0.338415 -2.272724,0.676867 -3.409143,1.015332 -0.385983,0.11495 -0.771956,0.22991 -1.157945,0.344846 -0.557249,0.165942 -1.114618,0.331818 -1.671864,0.497789 -0.170437,0.05074 -0.340843,0.10157 -0.516452,0.15385 -0.164116,0.04887 -0.328334,0.09786 -0.497431,0.148225 -0.158153,0.04697 -0.316162,0.09384 -0.479124,0.142242 -0.32032,0.09599 -0.640372,0.193301 -0.959882,0.291932 -0.154307,0.04744 -0.308537,0.09499 -0.467525,0.143875 -0.136805,0.04257 -0.273656,0.08517 -0.414613,0.129021 -0.646444,0.172697 -0.97253,0.185077 -1.597385,-0.07431 C 31.700097,54.95661 31.153648,54.209948 31,53.279899 c 0.07704,-0.406386 0.07712,-0.406268 0.379095,-0.676285 0.411538,-0.263441 0.758262,-0.396724 1.22735,-0.529136 0.164164,-0.04714 0.328475,-0.09427 0.497609,-0.14279 0.177191,-0.04916 0.35438,-0.09846 0.536935,-0.149138 0.186303,-0.05291 0.372532,-0.1057 0.564472,-0.160198 0.391952,-0.111037 0.784108,-0.221378 1.17643,-0.331072 0.547118,-0.153226 1.093407,-0.308901 1.639606,-0.465354 2.444437,-0.696702 4.901577,-1.339545 7.364102,-1.968507 0.841053,-0.214814 1.680779,-0.433752 2.519755,-0.656532 1.856266,-0.492421 3.71879,-0.957022 5.58459,-1.411824 0.505111,-0.123194 1.01003,-0.247025 1.514948,-0.370942 1.54995,-0.379425 3.101292,-0.753572 4.65677,-1.109742 0.188948,-0.0445 0.188948,-0.0445 0.381813,-0.08989 0.522757,-0.117655 1.016881,-0.206905 1.532521,-0.217458 z"
     id="path18" />
  <path
     style="fill:#937f54;fill-opacity:1;stroke-width:0.0337707"
     d="m 55.896652,10.007781 c -0.08567,0.07386 -0.08567,0.07386 -0.234417,0.486772 -0.373611,1.042427 -0.867725,2.259508 -1.74895,2.987779 l -0.07035,0.05659 c -0.316035,0.268824 -0.651499,0.486442 -1.039764,0.637157 -0.854762,0.301559 -1.763508,0.235012 -2.586356,-0.13904 -0.124826,-0.05906 -0.213467,-0.09206 -0.35169,-0.102889 -0.10843,0.01003 -0.10843,0.01003 -0.175977,0.07756 -0.04035,0.175667 -0.03245,0.340989 -0.02058,0.520082 l 0.0082,0.112 c 0.0087,0.127073 0.01735,0.254126 0.02638,0.381172 0.0084,0.117179 0.01659,0.234355 0.02466,0.351557 0.01399,0.203263 0.0281,0.406546 0.04241,0.609786 0.02097,0.297102 0.04172,0.594233 0.06234,0.891361 0.03345,0.482582 0.06705,0.965161 0.100847,1.447717 0.03285,0.468871 0.06567,0.937744 0.09834,1.406627 l 0.0061,0.08738 c 0.02203,0.316168 0.04404,0.63231 0.06603,0.948479 l 0.0058,0.08456 c 0.0078,0.111685 0.01558,0.223379 0.02336,0.335069 0.02262,0.325403 0.04528,0.650793 0.06806,0.976183 0.01442,0.205783 0.02877,0.411583 0.04314,0.617369 0.0083,0.119213 0.01663,0.238413 0.025,0.357625 0.03705,0.525917 0.07187,1.051601 0.09531,1.578317 -0.246275,-0.319414 -0.491058,-0.639966 -0.7354,-0.960882 -0.116927,-0.153602 -0.233858,-0.307216 -0.350831,-0.460786 l -0.06827,-0.08958 c -0.12682,-0.166566 -0.253721,-0.333102 -0.381065,-0.499302 -0.158401,-0.20673 -0.316581,-0.413559 -0.472393,-0.62225 -0.146318,-0.196009 -0.293659,-0.39118 -0.442977,-0.584919 l -0.06279,-0.08125 c -0.137207,-0.178725 -0.275191,-0.431047 -0.508672,-0.468569 -0.133693,0.05967 -0.133694,0.05967 -0.196292,0.217397 -0.03887,0.106249 -0.07722,0.211095 -0.124332,0.313963 -0.432555,0.888216 -1.019864,1.567098 -1.965226,1.914902 -1.428499,0.437325 -2.941032,-0.01779 -4.233996,-0.654307 -0.205367,-0.104324 -0.388673,-0.212353 -0.622645,-0.219511 -0.08233,0.03589 -0.08233,0.03589 -0.135082,0.101313 -0.02312,0.105374 -0.01215,0.176027 0.03244,0.274057 0.637756,1.219688 1.13863,2.606468 0.974469,4.000832 -0.0991,0.712381 -0.435272,1.478607 -1.016419,1.929543 l -0.05805,0.04314 c -0.33575,0.276524 -0.682641,0.488538 -1.084806,0.652197 l -0.08496,0.03331 -0.07995,0.03172 c -0.07588,0.0292 -0.130272,0.05573 -0.193257,0.107379 -0.06192,0.07709 -0.06192,0.07713 -0.04288,0.256049 0.06754,0.06754 0.06754,0.06754 0.141414,0.124002 0.182787,0.135059 0.363768,0.272087 0.542837,0.412042 0.240737,0.188316 0.482946,0.374327 0.727784,0.557282 0.239475,0.178857 0.477942,0.358953 0.715516,0.54033 0.150029,0.114555 0.299785,0.229489 0.451024,0.342455 0.168779,0.125714 0.336078,0.253035 0.501941,0.382558 0.241295,0.188552 0.483927,0.374965 0.729235,0.558271 0.239476,0.178857 0.477941,0.358954 0.715516,0.54033 0.15003,0.114567 0.299785,0.229489 0.451024,0.342456 0.168779,0.125712 0.336077,0.253033 0.501941,0.382559 0.241293,0.18855 0.48393,0.374961 0.729234,0.558271 0.203242,0.151842 0.406056,0.304213 0.607873,0.457948 l 0.08865,0.06761 c 0.08893,0.06785 0.177829,0.135726 0.266736,0.203612 0.121494,0.09278 0.243073,0.185496 0.364616,0.278214 l 0.0905,0.06907 c 0.184331,0.140586 0.368964,0.280718 0.554709,0.419429 0.210245,0.156901 0.418511,0.315982 0.625154,0.477605 0.133943,0.105035 0.268038,0.209721 0.404521,0.311455 l 0.0953,0.07032 c 0.06201,0.04587 0.124055,0.09168 0.186133,0.137457 l 0.08958,0.0651 0.08258,0.06089 c 0.09685,0.07063 0.12458,0.08878 0.163445,0.205394 -0.05157,0.05223 -0.103168,0.10444 -0.15487,0.156519 l -0.06464,0.0651 -0.06147,0.06233 -0.062,0.06233 c -0.05904,0.05962 -0.119021,0.117227 -0.18264,0.171954 -0.207565,0.177642 -0.40186,0.368119 -0.596132,0.559986 l -0.06128,0.06061 c -0.107391,0.106225 -0.214736,0.212501 -0.321878,0.318976 -0.08927,0.08874 -0.17858,0.177473 -0.268316,0.265745 -0.110775,0.108721 -0.221399,0.217494 -0.331441,0.326955 -0.04172,0.04159 -0.08345,0.08316 -0.125256,0.124661 -0.06035,0.05893 -0.120702,0.117836 -0.180329,0.177494 l -0.05454,0.05481 c -0.06525,0.0627 -0.114777,0.119152 -0.169315,0.192862 -0.01705,0.107893 -0.02451,0.168022 0.03957,0.258491 0.06174,0.04543 0.06169,0.04544 0.149065,0.05791 l 0.106925,-2.69e-4 0.122684,4.04e-4 c 0.06826,-5.61e-4 0.136543,-0.0011 0.2048,-0.0011 0.125706,1.69e-4 0.25138,-1e-4 0.377082,-7.57e-4 0.133622,-7.58e-4 0.267208,-9.64e-4 0.40083,-0.0011 0.252271,-2.37e-4 0.504534,-9.64e-4 0.756806,-0.0019 0.289489,-0.0011 0.578983,-0.0018 0.868471,-0.0025 0.59863,-0.001 1.197289,-0.0029 1.795915,-0.005 l 0.0746,-2.61e-4 c -0.002,0.242441 -0.0038,0.484877 -0.005,0.727323 -5e-4,0.123599 -9.62e-4,0.247226 -0.0019,0.370821 -0.0011,0.121084 -0.002,0.24214 -0.0026,0.363231 -1.01e-4,0.04604 -2.7e-4,0.09207 -4.69e-4,0.138117 l -0.0015,0.134951 v 0.124988 c -7e-4,0.108383 -0.0074,0.173904 0.05528,0.263175 0.110659,0.07451 0.110682,0.07453 0.481233,0.01656 0.390714,-0.06414 0.774578,-0.08915 1.169902,-0.08971 h 0.08014 c 0.442419,-0.0018 0.870685,0.02329 1.302153,0.132051 l 0.07402,0.0199 c 0.703342,0.189284 1.41181,0.524923 1.925847,1.054409 0.103331,0.112454 0.159221,0.180221 0.309342,0.22043 0.142237,-0.03809 0.20836,-0.09606 0.313438,-0.19629 0.48104,-0.460719 1.043972,-0.799153 1.677122,-1.001972 l 0.08426,-0.02591 c 0.483351,-0.151076 0.978498,-0.209569 1.483268,-0.205525 l 0.07866,9.62e-4 c 0.395922,0.0012 0.783708,0.01487 1.17558,0.0779 0.171917,0.02844 0.33232,0.05282 0.506626,0.03607 0.07719,-0.07471 0.09953,-0.121375 0.113516,-0.228281 l -7e-4,-0.108103 v -0.122954 c -8.22e-4,-0.06652 -0.0018,-0.133004 -0.0018,-0.199525 -2.72e-4,-0.11737 -8.75e-4,-0.234787 -0.0018,-0.352151 -8.74e-4,-0.121591 -0.0017,-0.243152 -0.0027,-0.364751 -8.74e-4,-0.236523 -0.0027,-0.473063 -0.0043,-0.709579 l -6.46e-4,-0.07599 c 0.59492,0.003 1.189841,0.0054 1.784771,0.0068 0.289192,7e-4 0.578358,0.0014 0.867549,0.003 0.254035,0.0013 0.508043,0.0026 0.762078,0.003 0.134137,1.69e-4 0.268281,2.7e-4 0.402416,0.0011 0.128377,9.61e-4 0.256748,0.0016 0.385133,0.0016 0.04725,-6.6e-5 0.09455,-1e-4 0.141809,-6.6e-5 l 0.134749,0.0015 0.122681,-5.84e-4 c 0.106878,3.76e-4 0.106889,4.06e-4 0.194248,-0.01623 0.06291,-0.06226 0.06299,-0.06226 0.101313,-0.135082 -0.0035,-0.117812 -0.01899,-0.182572 -0.08911,-0.277685 l -0.0714,-0.06938 -0.07911,-0.07791 -0.0833,-0.07948 C 65.859348,39.660779 65.738049,39.539124 65.607543,39.427411 65.408493,39.257266 65.223784,39.073849 65.039178,38.8884 65.000938,38.85001 64.962698,38.81169 64.924483,38.773367 64.823695,38.672498 64.722982,38.571571 64.622331,38.470553 64.518218,38.366054 64.414042,38.26158 64.30982,38.157185 64.085414,37.93242 63.861111,37.707553 63.636913,37.482571 l 0.0959,-0.08028 c 0.0637,-0.05332 0.127668,-0.104545 0.193783,-0.154936 0.178339,-0.131666 0.354657,-0.265459 0.529313,-0.401948 0.24085,-0.188373 0.483178,-0.37445 0.728113,-0.55748 0.239474,-0.178858 0.477944,-0.358954 0.715519,-0.540331 0.150026,-0.114567 0.29978,-0.229489 0.451021,-0.342456 0.168776,-0.125712 0.336083,-0.253033 0.501944,-0.382558 0.241297,-0.188551 0.48393,-0.374966 0.729234,-0.558271 0.239477,-0.178856 0.477944,-0.358953 0.715521,-0.54033 0.150025,-0.114566 0.299779,-0.229487 0.451021,-0.342456 0.168776,-0.125711 0.336073,-0.253033 0.501945,-0.382558 0.241286,-0.188551 0.483929,-0.37496 0.72923,-0.558271 0.292719,-0.21869 0.583775,-0.439465 0.874218,-0.661166 0.15055,-0.114964 0.301232,-0.229803 0.451939,-0.344565 0.196618,-0.149721 0.393236,-0.299399 0.589409,-0.449705 0.184595,-0.141443 0.368981,-0.283139 0.555231,-0.422397 0.08872,-0.0662 0.177281,-0.132579 0.265681,-0.199194 0.04674,-0.03522 0.09352,-0.07034 0.140365,-0.105396 0.08435,-0.062 0.168671,-0.123996 0.252487,-0.186729 l 0.08312,-0.06233 c 0.09626,-0.06974 0.190292,-0.137303 0.27227,-0.22373 0.03814,-0.108967 0.03814,-0.108967 0.03378,-0.202624 -0.08522,-0.127898 -0.08522,-0.127898 -0.372,-0.243783 -0.125832,-0.04984 -0.24939,-0.101908 -0.370951,-0.161465 -0.844938,-0.454302 -1.442204,-1.096248 -1.735231,-2.020104 -0.399194,-1.408861 0.126384,-2.98133 0.77488,-4.229577 0.06502,-0.119056 0.114462,-0.226999 0.144453,-0.360791 0.0053,-0.109888 0.0053,-0.109888 -0.06214,-0.211197 -0.147041,-0.04411 -0.216306,-0.0432 -0.356313,0.02255 -0.278551,0.146238 -0.564618,0.277168 -0.852446,0.404062 -1.188268,0.506907 -2.61138,0.844259 -3.856847,0.350105 -0.906697,-0.385362 -1.495571,-1.057492 -1.865822,-1.960808 l -0.03369,-0.08534 -0.03229,-0.08048 c -0.02975,-0.07608 -0.05679,-0.131254 -0.108709,-0.194511 -0.077,-0.06184 -0.077,-0.06184 -0.255917,-0.0428 -0.06754,0.06754 -0.06754,0.06755 -0.119978,0.133896 l -0.06169,0.08113 -0.06843,0.08997 -0.07279,0.09604 c -0.124284,0.163481 -0.248698,0.326869 -0.371607,0.491389 -0.125195,0.16795 -0.251918,0.334475 -0.380838,0.499568 -0.188552,0.241295 -0.374967,0.483929 -0.558276,0.729235 -0.242049,0.323981 -0.486616,0.645991 -0.732138,0.967343 l -0.06572,0.08588 c -0.146272,0.191418 -0.292596,0.382798 -0.439015,0.5741 -0.0035,-0.212534 0.0035,-0.422931 0.01767,-0.63498 l 0.0078,-0.111265 c 0.0089,-0.127258 0.01758,-0.254522 0.0266,-0.381766 0.0087,-0.117203 0.01653,-0.234415 0.02468,-0.351625 0.01408,-0.2034 0.02835,-0.406791 0.04261,-0.61018 0.02083,-0.297023 0.04157,-0.59406 0.06222,-0.891096 0.03352,-0.482458 0.06703,-0.964875 0.100718,-1.447323 l 0.0061,-0.08766 c 0.02249,-0.322603 0.04507,-0.645207 0.06764,-0.967806 l 0.0061,-0.08785 0.0061,-0.08779 0.01224,-0.175383 0.0061,-0.08748 c 0.03387,-0.483814 0.06755,-0.967648 0.101115,-1.45148 0.02065,-0.297819 0.04138,-0.595608 0.06239,-0.893405 0.01444,-0.205723 0.02878,-0.411498 0.04305,-0.617238 0.0078,-0.11908 0.01645,-0.238158 0.02485,-0.35723 0.03377,-0.474717 0.115336,-0.988867 0.05714,-1.463746 l -0.101173,-0.06757 c -0.13026,-0.0186 -0.219018,0.0029 -0.335577,0.05701 -0.629999,0.297587 -1.252,0.370766 -1.941488,0.35248 -0.723677,-0.03509 -1.499046,-0.457388 -1.987516,-0.984493 l -0.05802,-0.06662 c -0.404298,-0.451361 -0.742033,-0.93442 -1.010148,-1.478475 l -0.03657,-0.07519 c -0.139462,-0.284912 -0.268986,-0.57213 -0.374186,-0.871542 l -0.02433,-0.06972 c -0.04077,-0.115721 -0.08181,-0.231265 -0.12024,-0.347798 l -0.02222,-0.06761 -0.04401,-0.12743 c -0.03806,-0.11452 -0.03806,-0.11452 -0.09037,-0.204472 -0.101791,-0.04721 -0.16552,-0.07496 -0.276495,-0.05277 z"
     id="path1" />
</svg>
