<?xml version="1.0" encoding="UTF-8" standalone="no"?>
<svg
   width="80"
   height="80"
   viewBox="-2015 -2000 496 496"
   version="1.1"
   id="svg1"
   sodipodi:docname="Maple_Leaf.svg"
   inkscape:version="1.3.2 (091e20e, 2023-11-25, custom)"
   xml:space="preserve"
   inkscape:export-filename="Maple_Leaf.png"
   inkscape:export-xdpi="96"
   inkscape:export-ydpi="96"
   xmlns:inkscape="http://www.inkscape.org/namespaces/inkscape"
   xmlns:sodipodi="http://sodipodi.sourceforge.net/DTD/sodipodi-0.dtd"
   xmlns="http://www.w3.org/2000/svg"
   xmlns:svg="http://www.w3.org/2000/svg"
   xmlns:rdf="http://www.w3.org/1999/02/22-rdf-syntax-ns#"
   xmlns:cc="http://creativecommons.org/ns#"
   xmlns:dc="http://purl.org/dc/elements/1.1/"><defs
     id="defs1" /><sodipodi:namedview
     id="namedview1"
     pagecolor="#ffffff"
     bordercolor="#000000"
     borderopacity="0.25"
     inkscape:showpageshadow="2"
     inkscape:pageopacity="0.0"
     inkscape:pagecheckerboard="0"
     inkscape:deskcolor="#d1d1d1"
     inkscape:zoom="7.2842877"
     inkscape:cx="49.764646"
     inkscape:cy="52.235719"
     inkscape:window-width="1920"
     inkscape:window-height="1051"
     inkscape:window-x="-9"
     inkscape:window-y="-9"
     inkscape:window-maximized="1"
     inkscape:current-layer="svg1" /><title
     id="title1">maple leaf from the flag of Canada</title><metadata
     id="metadata1"><rdf:RDF><cc:Work
         rdf:about=""><dc:title>maple leaf from the flag of Canada</dc:title></cc:Work></rdf:RDF></metadata><path
     d="m -1649.1787,-1641.6852 c 2.0621,-2.0621 86.7787,-76.22 86.7787,-76.22 l -14.4354,-6.1869 c -8.2492,-4.0417 -6.1044,-9.4863 -4.1246,-14.3531 1.9796,-6.2691 16.5802,-55.5153 16.5802,-55.5153 0,0 -39.3473,8.2491 -47.5964,10.3111 -6.1865,1.9798 -8.2487,-2.062 -10.3109,-6.1865 -2.0623,-4.1246 -12.3735,-26.7265 -12.3735,-26.7265 0,0 -43.3892,49.4109 -45.4516,51.3906 -8.2488,6.1869 -16.5804,0 -14.5182,-8.2487 0,-8.2491 22.7671,-106.9061 22.7671,-106.9061 0,0 -24.8293,14.353 -33.0781,18.4775 -6.1868,4.1244 -10.3936,4.1244 -14.5181,-4.1245 -4.2071,-6.1867 -35.2229,-65.8264 -35.2229,-65.8264 0,0 -30.9336,59.6397 -35.0582,65.8264 -4.1244,8.2489 -8.2488,8.2489 -14.5179,4.1245 -8.2488,-4.1245 -33.0782,-18.4775 -33.0782,-18.4775 0,0 22.7671,98.657 22.7671,106.9061 2.0623,8.2487 -6.1868,14.4356 -14.5182,8.2487 -2.0623,-2.0622 -45.4517,-51.3906 -45.4517,-51.3906 0,0 -10.3111,22.5194 -12.3734,26.6439 -2.0622,4.1244 -4.1244,8.1666 -10.3109,6.1868 -8.3315,-2.0624 -47.5964,-10.3113 -47.5964,-10.3113 0,0 14.518,49.2462 16.5802,55.5154 1.9798,4.9492 4.1246,10.311 -4.1245,14.3531 l -14.4355,6.2693 c 0,0 84.6341,74.1579 86.7787,76.22 4.2071,4.1243 8.2489,6.1867 4.2071,18.56 -4.2071,12.3734 -8.3316,28.9537 -8.3316,28.9537 0,0 78.5298,-16.5803 86.8612,-18.6424 7.1767,-0.7425 15.0956,2.0621 15.0956,10.3111 0,8.2489 -4.7844,71.9435 -4.7844,71.9435 h 24.7467 c 0,0 -4.7843,-63.6122 -4.7843,-71.9435 0,-8.3314 7.8365,-11.0536 15.178,-10.3111 8.2489,2.0621 86.7788,18.6424 86.7788,18.6424 0,0 -4.1245,-16.5803 -8.2491,-28.9537 -4.1245,-12.3733 0,-14.4357 4.1246,-18.56 z"
     id="path1-3"
     style="fill:#000000;fill-opacity:1;stroke-width:0.824896"
     sodipodi:nodetypes="scccccscccccccccccccccccccccccsccscccs" /><path
     d="m -1664.9794,-1657.2438 c 1.9956,-1.9956 83.9794,-73.7612 83.9794,-73.7612 l -13.9698,-5.9873 c -7.983,-3.9114 -5.9075,-9.1803 -3.9915,-13.8901 1.9157,-6.067 16.0454,-53.7245 16.0454,-53.7245 0,0 -38.0781,7.983 -46.0611,9.9785 -5.9869,1.9159 -7.9826,-1.9955 -9.9783,-5.987 -1.9957,-3.9915 -11.9743,-25.8644 -11.9743,-25.8644 0,0 -41.9896,47.8171 -43.9854,49.7329 -7.9828,5.9873 -16.0456,0 -14.0499,-7.9826 0,-7.983 22.0327,-103.4575 22.0327,-103.4575 0,0 -24.0284,13.89 -32.0111,17.8814 -5.9872,3.9914 -10.0583,3.9914 -14.0498,-3.9914 -4.0713,-5.9872 -34.0867,-63.703 -34.0867,-63.703 0,0 -29.9357,57.7158 -33.9272,63.703 -3.9914,7.9828 -7.9828,7.9828 -14.0496,3.9914 -7.9828,-3.9914 -32.0112,-17.8814 -32.0112,-17.8814 0,0 22.0327,95.4745 22.0327,103.4575 1.9957,7.9826 -5.9872,13.9699 -14.0499,7.9826 -1.9957,-1.9957 -43.9855,-49.7329 -43.9855,-49.7329 0,0 -9.9785,21.7931 -11.9742,25.7844 -1.9957,3.9914 -3.9914,7.9032 -9.9783,5.9873 -8.0628,-1.9959 -46.0611,-9.9786 -46.0611,-9.9786 0,0 14.0497,47.6575 16.0454,53.7245 1.916,4.7896 3.9915,9.9784 -3.9915,13.8901 l -13.9698,6.0671 c 0,0 81.904,71.7656 83.9794,73.7612 4.0713,3.9913 7.9828,5.9872 4.0713,17.9614 -4.0713,11.9742 -8.0628,28.0197 -8.0628,28.0197 0,0 75.9966,-16.0455 84.0593,-18.0411 6.9451,-0.7185 14.6086,1.9956 14.6086,9.9785 0,7.9828 -4.63,69.6228 -4.63,69.6228 h 23.9484 c 0,0 -4.63,-61.5602 -4.63,-69.6228 0,-8.0626 7.5837,-10.697 14.6884,-9.9785 7.9828,1.9956 83.9795,18.0411 83.9795,18.0411 0,0 -3.9915,-16.0455 -7.983,-28.0197 -3.9915,-11.9742 0,-13.9701 3.9915,-17.9614 z"
     id="path1"
     style="fill:#c6a869;fill-opacity:1;stroke-width:0.798286"
     sodipodi:nodetypes="scccccscccccccccccccccccccccccsccscccs" /></svg>
