<?xml version="1.0" encoding="UTF-8" standalone="no"?>
<svg
   width="80"
   height="80"
   viewBox="-2015 -2000 496 496"
   version="1.1"
   id="svg1"
   sodipodi:docname="TimbitIcon.svg"
   inkscape:version="1.3.2 (091e20e, 2023-11-25, custom)"
   xml:space="preserve"
   inkscape:export-filename="TimbitIcon.png"
   inkscape:export-xdpi="96"
   inkscape:export-ydpi="96"
   xmlns:inkscape="http://www.inkscape.org/namespaces/inkscape"
   xmlns:sodipodi="http://sodipodi.sourceforge.net/DTD/sodipodi-0.dtd"
   xmlns="http://www.w3.org/2000/svg"
   xmlns:svg="http://www.w3.org/2000/svg"
   xmlns:rdf="http://www.w3.org/1999/02/22-rdf-syntax-ns#"
   xmlns:cc="http://creativecommons.org/ns#"
   xmlns:dc="http://purl.org/dc/elements/1.1/"><defs
     id="defs1" /><sodipodi:namedview
     id="namedview1"
     pagecolor="#ffffff"
     bordercolor="#000000"
     borderopacity="0.25"
     inkscape:showpageshadow="2"
     inkscape:pageopacity="0.0"
     inkscape:pagecheckerboard="0"
     inkscape:deskcolor="#d1d1d1"
     inkscape:zoom="10.301538"
     inkscape:cx="29.849912"
     inkscape:cy="49.264488"
     inkscape:window-width="1920"
     inkscape:window-height="1051"
     inkscape:window-x="-9"
     inkscape:window-y="-9"
     inkscape:window-maximized="1"
     inkscape:current-layer="svg1" /><title
     id="title1">maple leaf from the flag of Canada</title><metadata
     id="metadata1"><rdf:RDF><cc:Work
         rdf:about=""><dc:title>maple leaf from the flag of Canada</dc:title></cc:Work></rdf:RDF></metadata><path
     id="path1-9-4"
     style="fill:#000000;fill-opacity:1;stroke-width:0.824896"
     d="m -1754.6876,-1931.8 c 0,0 -30.9244,59.6442 -35.0489,65.831 -4.1245,8.2489 -8.2586,8.2412 -14.5277,4.1168 -8.2489,-4.1245 -33.0719,-18.4693 -33.0719,-18.4693 0,0 22.7612,98.6496 22.7612,106.8987 2.0623,8.2487 -6.1836,14.433 -14.5151,8.2461 -2.0622,-2.0622 -45.4473,-51.3909 -45.4473,-51.3909 0,0 -10.3131,22.5284 -12.3754,26.6527 -2.0622,4.1245 -4.1243,8.1612 -10.3108,6.1814 -8.3314,-2.0624 -47.5994,-10.3107 -47.5994,-10.3107 0,0 14.5175,49.2511 16.5797,55.5203 1.9799,4.9493 4.1323,10.3103 -4.1168,14.3524 l -14.44,6.269 c 0,0 84.6332,74.1547 86.7778,76.2168 4.207,4.1244 8.2463,6.1835 4.2044,18.5568 -4.207,12.3734 -8.3337,28.9552 -8.3337,28.9552 0,0 78.5339,-16.5822 86.8654,-18.6444 7.1766,-0.7424 15.1032,2.0617 15.1032,10.3107 0,8.2489 -4.7925,71.9499 -4.7925,71.9499 h 24.7508 c 0,0 -4.7925,-63.6185 -4.7925,-71.9499 0,-8.3313 7.8368,-11.0531 15.1783,-10.3107 8.2488,2.0622 86.7903,18.6444 86.7903,18.6444 0,0 -4.134,-16.5818 -8.2586,-28.9552 -4.1245,-12.3733 0,-14.4324 4.1293,-18.5568 2.0621,-2.0621 86.7778,-76.2168 86.7778,-76.2168 l -14.44,-6.1939 c -8.2491,-4.0418 -6.0967,-9.4857 -4.1168,-14.3525 1.9795,-6.2692 16.5797,-55.5077 16.5797,-55.5077 0,0 -39.3504,8.2488 -47.5994,10.3108 -6.1865,1.9797 -8.2486,-2.0695 -10.3109,-6.194 -2.0622,-4.1246 -12.3753,-26.7278 -12.3753,-26.7278 0,0 -43.385,49.4113 -45.4473,51.3909 -8.2489,6.1869 -16.5774,0 -14.5151,-8.2461 0,-8.2491 22.7612,-106.8987 22.7612,-106.8987 0,0 -24.8231,14.3448 -33.0719,18.4693 -6.1868,4.1244 -10.4031,4.1321 -14.5277,-4.1168 -4.207,-6.1868 -35.2241,-65.831 -35.2241,-65.831 z m 0.037,57.7976 c 1.3666,2.5065 2.7373,5.0141 4.1042,7.5203 3.9436,6.8661 7.2494,14.1408 12.0626,20.4713 5.2724,7.3788 13.7197,12.3388 22.7111,13.4515 1.7863,0.2478 3.6514,0.3197 5.5182,0.3879 -1.7677,8.0907 -3.5528,16.2089 -5.2804,24.2878 -2.2161,10.4303 -4.2795,20.8977 -5.9313,31.4328 -2.2414,13.8593 4.6221,28.822 16.83,35.8622 11.4659,6.7583 26.668,6.126 37.7643,-1.1011 3.3125,-2.0375 5.8803,-4.9959 8.5589,-7.7581 5.5206,-5.8237 10.7872,-11.8259 16.0793,-17.8561 0.65,-0.9426 2.1628,-0.9469 2.7403,0.063 4.9533,5.3916 11.6811,9.1651 18.8947,10.4858 5.8662,1.2439 11.8201,-0.2243 17.5809,-1.3264 -1.2145,3.8152 -2.43,7.6291 -3.6664,11.437 -0.3434,1.1056 -0.7691,2.3599 -1.1261,3.3534 -2.1457,6.536 -2.4148,13.69 -0.6507,20.3462 0.6158,2.4328 1.6853,4.9097 2.7529,7.2201 -16.5057,14.5068 -33.0092,29.025 -49.5141,43.5328 -5.3897,4.9217 -11.1644,9.4305 -16.1919,14.7402 -4.3806,4.4699 -7.6077,10.0632 -9.1719,16.1293 -1.0827,3.8217 -1.2918,7.813 -1.3765,11.7623 -12.5701,-2.701 -25.1319,-5.4066 -37.7017,-8.1085 -1.5704,-0.3229 -3.2668,-0.7169 -4.7425,-1.0636 -10.1234,-2.173 -21.0508,-1.0077 -30.2439,3.8665 -7.4018,-3.8401 -15.9074,-5.5335 -24.2128,-4.7549 -15.3441,2.8945 -30.591,6.3275 -45.8853,9.5349 -0.937,0.4352 -2.3172,0.083 -2.465,-1.0636 0,-2.6112 -0.2656,-5.2422 -0.8008,-7.8081 -0.1904,-0.9322 -0.4849,-2.1037 -0.7508,-3.0031 -1.6021,-5.5025 -4.4274,-10.662 -8.3211,-14.878 -21.2288,-19.4068 -43.003,-38.2151 -64.5423,-57.2721 -0.7118,-0.5644 -1.4349,-1.173 -1.6891,-2.0897 3.0014,-6.0623 4.2979,-12.9794 3.5036,-19.708 -0.5685,-3.6596 -1.6668,-7.2235 -2.7028,-10.7736 -0.8913,-2.8677 -1.727,-5.7584 -2.6528,-8.6091 -0.4538,-0.9102 0.1002,-2.2018 1.1888,-2.2022 1.624,0.1664 3.224,0.6313 4.855,0.8133 7.6217,1.0651 15.6071,-0.4986 22.148,-4.5923 1.1237,-0.6842 2.302,-1.5466 3.2535,-2.3024 1.9784,-1.5686 3.7211,-3.4083 5.3931,-5.293 4.9771,5.6348 9.9625,11.2712 14.9405,16.9051 2.3283,2.9632 4.9222,5.7262 7.9332,8.0083 6.3339,4.9232 14.1987,7.902 22.2357,8.146 12.7432,0.5308 25.3365,-6.783 31.4703,-17.9186 4.2085,-7.4689 5.0949,-16.4631 3.6162,-24.8133 -2.8747,-18.0148 -6.9433,-35.7671 -10.8112,-53.5933 1.3241,-0.079 2.6501,-0.1519 3.9415,-0.2377 0.7376,-0.046 1.836,-0.1668 2.5026,-0.2753 8.408,-1.3267 16.1617,-6.055 21.4098,-12.7258 5.687,-8.4709 10.4327,-17.5744 15.3284,-26.5526 0.3741,-0.6924 0.7398,-1.3849 1.1138,-2.0771 z"
     transform="translate(0,3e-5)"
     inkscape:label="leafBG" /><path
     id="path1-9"
     style="fill:#c6a869;fill-opacity:1;stroke-width:0.798286"
     d="M -1767.0848 -1938 C -1767.0848 -1938 -1797.0116 -1880.2798 -1801.0031 -1874.2926 C -1804.9945 -1866.3098 -1808.9953 -1866.3172 -1815.0621 -1870.3086 C -1823.0449 -1874.3 -1847.0672 -1888.1821 -1847.0672 -1888.1821 C -1847.0672 -1888.1821 -1825.0402 -1792.7147 -1825.0402 -1784.7317 C -1823.0445 -1776.7491 -1831.0244 -1770.7643 -1839.0871 -1776.7516 C -1841.0828 -1778.7473 -1883.0684 -1826.4848 -1883.0684 -1826.4848 C -1883.0684 -1826.4848 -1893.0488 -1804.6831 -1895.0445 -1800.6918 C -1897.0402 -1796.7004 -1899.0358 -1792.7939 -1905.0227 -1794.7098 C -1913.0854 -1796.7057 -1951.0867 -1804.6879 -1951.0867 -1804.6879 C -1951.0867 -1804.6879 -1937.0375 -1757.0256 -1935.0418 -1750.9586 C -1933.1258 -1746.169 -1931.0428 -1740.9809 -1939.0258 -1737.0692 L -1953 -1731.0024 C -1953 -1731.0024 -1871.0969 -1659.2398 -1869.0215 -1657.2442 C -1864.9502 -1653.2529 -1861.0412 -1651.2602 -1864.9527 -1639.286 C -1869.024 -1627.3118 -1873.0176 -1611.2649 -1873.0176 -1611.2649 C -1873.0176 -1611.2649 -1797.017 -1627.3122 -1788.9543 -1629.3078 C -1782.0092 -1630.0263 -1774.3383 -1627.3126 -1774.3383 -1619.3297 C -1774.3383 -1611.3469 -1778.9762 -1549.7008 -1778.9762 -1549.7008 L -1755.0238 -1549.7008 C -1755.0238 -1549.7008 -1759.6617 -1611.2671 -1759.6617 -1619.3297 C -1759.6617 -1627.3923 -1752.0777 -1630.0263 -1744.973 -1629.3078 C -1736.9903 -1627.3122 -1660.9824 -1611.2649 -1660.9824 -1611.2649 C -1660.9824 -1611.2649 -1664.9831 -1627.3118 -1668.9746 -1639.286 C -1672.9661 -1651.2602 -1668.97 -1653.2529 -1664.9785 -1657.2442 C -1662.9829 -1659.2398 -1581 -1731.0024 -1581 -1731.0024 L -1594.9742 -1736.9965 C -1602.9572 -1740.9079 -1600.8742 -1746.1762 -1598.9582 -1750.886 C -1597.0425 -1756.953 -1582.9133 -1804.6032 -1582.9133 -1804.6032 C -1582.9133 -1804.6032 -1620.9944 -1796.6205 -1628.9773 -1794.625 C -1634.9642 -1792.7091 -1636.9598 -1796.6277 -1638.9555 -1800.6192 C -1640.9512 -1804.6107 -1650.9316 -1826.4848 -1650.9316 -1826.4848 C -1650.9316 -1826.4848 -1692.9171 -1778.6674 -1694.9129 -1776.7516 C -1702.8957 -1770.7643 -1710.9555 -1776.7491 -1708.9598 -1784.7317 C -1708.9598 -1792.7147 -1686.9328 -1888.1821 -1686.9328 -1888.1821 C -1686.9328 -1888.1821 -1710.9552 -1874.3 -1718.9379 -1870.3086 C -1724.9251 -1866.3172 -1729.0054 -1866.3098 -1732.9969 -1874.2926 C -1737.0682 -1880.2798 -1767.0848 -1938 -1767.0848 -1938 z M -1767.0484 -1882.0668 C -1765.7259 -1879.6412 -1764.3994 -1877.2145 -1763.0766 -1874.7891 C -1759.2602 -1868.1445 -1756.061 -1861.1045 -1751.4031 -1854.9782 C -1746.3008 -1847.8374 -1738.126 -1843.0374 -1729.4246 -1841.9606 C -1727.6959 -1841.7208 -1725.891 -1841.6512 -1724.0844 -1841.5852 C -1725.7951 -1833.7555 -1727.5226 -1825.8992 -1729.1945 -1818.0809 C -1731.3391 -1807.9871 -1733.3359 -1797.8573 -1734.9344 -1787.6621 C -1737.1035 -1774.2498 -1730.4614 -1759.7698 -1718.6473 -1752.9567 C -1707.5513 -1746.4164 -1692.8396 -1747.0283 -1682.1012 -1754.0223 C -1678.8956 -1755.9941 -1676.4106 -1758.857 -1673.8184 -1761.5301 C -1668.4759 -1767.166 -1663.3792 -1772.9745 -1658.2578 -1778.8102 C -1657.6288 -1779.7224 -1656.1648 -1779.7266 -1655.6059 -1778.7496 C -1650.8124 -1773.5319 -1644.3016 -1769.8801 -1637.3207 -1768.602 C -1631.6438 -1767.3982 -1625.8819 -1768.8191 -1620.307 -1769.8856 C -1621.4823 -1766.1935 -1622.6586 -1762.5026 -1623.8551 -1758.8176 C -1624.1874 -1757.7476 -1624.5994 -1756.5338 -1624.9449 -1755.5723 C -1627.0213 -1749.2472 -1627.2818 -1742.3239 -1625.5746 -1735.8825 C -1624.9786 -1733.5281 -1623.9436 -1731.1311 -1622.9105 -1728.8953 C -1638.8837 -1714.8564 -1654.8549 -1700.8066 -1670.8273 -1686.7668 C -1676.0432 -1682.0038 -1681.6316 -1677.6405 -1686.4969 -1672.502 C -1690.7362 -1668.1763 -1693.8592 -1662.7635 -1695.373 -1656.893 C -1696.4207 -1653.1946 -1696.6231 -1649.3321 -1696.7051 -1645.5102 C -1708.8697 -1648.124 -1721.0262 -1650.7424 -1733.1906 -1653.3571 C -1734.7103 -1653.6696 -1736.352 -1654.0509 -1737.7801 -1654.3864 C -1747.5769 -1656.4893 -1758.1518 -1655.3616 -1767.0484 -1650.6446 C -1774.2114 -1654.3609 -1782.4426 -1655.9996 -1790.4801 -1655.2461 C -1805.3292 -1652.445 -1820.0843 -1649.1228 -1834.8852 -1646.0188 C -1835.792 -1645.5977 -1837.1277 -1645.939 -1837.2707 -1647.0481 C -1837.2732 -1649.5751 -1837.5278 -1652.1212 -1838.0457 -1654.6043 C -1838.23 -1655.5065 -1838.515 -1656.6402 -1838.7723 -1657.5106 C -1840.3227 -1662.8356 -1843.0569 -1667.8286 -1846.825 -1671.9086 C -1867.369 -1690.6894 -1888.4408 -1708.891 -1909.2852 -1727.3332 C -1909.9741 -1727.8794 -1910.6739 -1728.4684 -1910.9199 -1729.3555 C -1908.0153 -1735.2223 -1906.7606 -1741.9162 -1907.5293 -1748.4278 C -1908.0794 -1751.9693 -1909.1423 -1755.4183 -1910.1449 -1758.8539 C -1911.0074 -1761.629 -1911.8162 -1764.4265 -1912.7121 -1767.1852 C -1913.1513 -1768.0661 -1912.6153 -1769.316 -1911.5617 -1769.3164 C -1909.9901 -1769.1554 -1908.4417 -1768.7055 -1906.8633 -1768.5293 C -1899.4874 -1767.4986 -1891.7596 -1769.0119 -1885.4297 -1772.9735 C -1884.3423 -1773.6356 -1883.202 -1774.4702 -1882.2812 -1775.2016 C -1880.3666 -1776.7196 -1878.6801 -1778.5 -1877.0621 -1780.3239 C -1872.2455 -1774.8709 -1867.4209 -1769.4163 -1862.6035 -1763.9641 C -1860.3503 -1761.0965 -1857.8401 -1758.4226 -1854.9262 -1756.2141 C -1848.7966 -1751.4498 -1841.1855 -1748.567 -1833.4078 -1748.3309 C -1821.0757 -1747.8172 -1808.8886 -1754.8951 -1802.9527 -1765.6715 C -1798.8799 -1772.8995 -1798.0221 -1781.6035 -1799.4531 -1789.6844 C -1802.2351 -1807.118 -1806.1724 -1824.2977 -1809.9156 -1841.5489 C -1808.6342 -1841.6245 -1807.351 -1841.6959 -1806.1012 -1841.7789 C -1805.3874 -1841.824 -1804.3244 -1841.9403 -1803.6793 -1842.0453 C -1795.5426 -1843.3292 -1788.039 -1847.905 -1782.9602 -1854.3606 C -1777.4566 -1862.5582 -1772.864 -1871.3681 -1768.1262 -1880.0567 C -1767.7642 -1880.7267 -1767.4103 -1881.3969 -1767.0484 -1882.0668 z "
     transform="translate(0,3e-5)"
     inkscape:label="leaf" /><path
     style="fill:#000000;fill-opacity:1;stroke:#c6a869;stroke-width:0;stroke-linecap:square;paint-order:stroke fill markers"
     d="m -1755.5745,-1659.3341 c 0,0 -43.6517,-18.6692 -63.137,-31.9646 -19.8183,-13.5227 -53.6885,-47.9393 -53.6885,-47.9393 0,0 40.7099,24.036 62.2952,33.5339 13.6397,6.0018 42.2171,14.7072 42.2171,14.7072 0,0 -1.1336,-45.6193 1.7589,-68.163 3.1993,-24.9343 17.1507,-73.4401 17.1507,-73.4401 0,0 -4.0714,47.4638 -3.7444,71.2414 0.3661,26.615 6.3831,79.5968 6.3831,79.5968 0,0 39.3641,-16.4367 58.0484,-26.6433 17.8891,-9.7724 51.4962,-32.9821 51.4962,-32.9821 0,0 -25.7208,30.0128 -41.5013,41.6264 -23.4142,17.2313 -77.2784,40.4267 -77.2784,40.4267 z"
     id="path1-7"
     sodipodi:nodetypes="cacacacacacac"
     inkscape:label="veinsBG" /><path
     style="fill:#c6a869;stroke:#c6a869;stroke-width:0;stroke-linecap:square;paint-order:stroke fill markers"
     d="m -1765.5435,-1671.124 c 0,0 -42.2434,-18.0669 -61.1001,-30.9334 -19.1789,-13.0864 -51.9564,-46.3927 -51.9564,-46.3927 0,0 39.3965,23.2606 60.2854,32.4521 13.1997,5.8081 40.8551,14.2327 40.8551,14.2327 0,0 -1.097,-44.1475 1.7022,-65.9639 3.0961,-24.1299 16.5974,-71.0708 16.5974,-71.0708 0,0 -3.9401,45.9325 -3.6236,68.943 0.3543,25.7563 6.1771,77.0288 6.1771,77.0288 0,0 38.0942,-15.9064 56.1757,-25.7837 17.312,-9.4571 49.8348,-31.918 49.8348,-31.918 0,0 -24.891,29.0445 -40.1624,40.2834 -22.6588,16.6754 -74.7852,39.1225 -74.7852,39.1225 z"
     id="path1"
     sodipodi:nodetypes="cacacacacacac"
     inkscape:label="veins" /></svg>
