<?xml version="1.0" encoding="UTF-8" standalone="no"?>
<svg
   version="1.1"
   width="112"
   height="112"
   id="svg17"
   sodipodi:docname="TimHortonsIcon.svg"
   inkscape:version="1.3.2 (091e20e, 2023-11-25, custom)"
   inkscape:export-filename="TimHortonsIcon_alt.png"
   inkscape:export-xdpi="96"
   inkscape:export-ydpi="96"
   xmlns:inkscape="http://www.inkscape.org/namespaces/inkscape"
   xmlns:sodipodi="http://sodipodi.sourceforge.net/DTD/sodipodi-0.dtd"
   xmlns="http://www.w3.org/2000/svg"
   xmlns:svg="http://www.w3.org/2000/svg">
  <defs
     id="defs17" />
  <sodipodi:namedview
     id="namedview17"
     pagecolor="#ffffff"
     bordercolor="#000000"
     borderopacity="0.25"
     inkscape:showpageshadow="2"
     inkscape:pageopacity="0.0"
     inkscape:pagecheckerboard="0"
     inkscape:deskcolor="#d1d1d1"
     inkscape:zoom="6.90625"
     inkscape:cx="36.271493"
     inkscape:cy="54.371041"
     inkscape:window-width="1920"
     inkscape:window-height="1051"
     inkscape:window-x="-9"
     inkscape:window-y="-9"
     inkscape:window-maximized="1"
     inkscape:current-layer="svg17" />
  <path
     id="path1"
     inkscape:label="leaf"
     d="m 55.711522,8.565763 c -0.239895,0.2068051 -0.239895,0.2068065 -0.656375,1.3629826 -1.04613,2.9188374 -2.429666,6.3267194 -4.897134,8.3659074 l -0.196875,0.15846 c -0.884933,0.752719 -1.824234,1.36206 -2.91139,1.784068 -2.393373,0.844376 -4.937895,0.658043 -7.241908,-0.389319 -0.349513,-0.165343 -0.597712,-0.257786 -0.984746,-0.28811 -0.303624,0.02807 -0.303624,0.02807 -0.492743,0.21719 -0.112994,0.49187 -0.09086,0.954782 -0.05762,1.45625 l 0.0229,0.313598 c 0.02423,0.355808 0.04855,0.711564 0.07386,1.067299 0.02346,0.328116 0.04647,0.656203 0.06908,0.984375 0.03919,0.569142 0.07865,1.138347 0.118748,1.707424 0.05867,0.831899 0.116858,1.663879 0.174528,2.495845 0.09365,1.351255 0.187735,2.70249 0.282386,4.053675 0.09198,1.312854 0.183881,2.625724 0.275366,3.938613 l 0.017,0.24471 c 0.06168,0.885282 0.123298,1.770495 0.18487,2.655785 l 0.01644,0.236767 c 0.02174,0.312733 0.04364,0.625472 0.06538,0.938205 0.06335,0.911141 0.126756,1.822246 0.190597,2.733353 0.04038,0.576203 0.0806,1.152447 0.120792,1.728662 0.02328,0.33381 0.04652,0.667567 0.07,1.001365 0.103726,1.472588 0.201245,2.944525 0.266872,4.419352 -0.68968,-0.894361 -1.375078,-1.791925 -2.05925,-2.690505 -0.327409,-0.430091 -0.654813,-0.860219 -0.982345,-1.290217 l -0.191154,-0.250803 c -0.355218,-0.466399 -0.710548,-0.932706 -1.067117,-1.398074 -0.443531,-0.578851 -0.886439,-1.15798 -1.32272,-1.742328 -0.409697,-0.548836 -0.822253,-1.095319 -1.240351,-1.637795 l -0.175822,-0.227533 c -0.384182,-0.500435 -0.77054,-1.206941 -1.424298,-1.312008 -0.374345,0.167118 -0.374346,0.167119 -0.549626,0.608724 -0.108822,0.297496 -0.21623,0.59107 -0.348132,0.879106 -1.211174,2.487041 -2.855666,4.387942 -5.50272,5.361803 -3.999856,1.224532 -8.235011,-0.04983 -11.855364,-1.832085 -0.575037,-0.292103 -1.088305,-0.594598 -1.743437,-0.614634 -0.230488,0.100464 -0.230488,0.100464 -0.378237,0.283677 -0.06476,0.295039 -0.03401,0.492877 0.09087,0.76737 1.785741,3.415177 3.188212,7.29822 2.728552,11.202499 -0.27749,1.994699 -1.218778,4.140163 -2.846012,5.402805 l -0.162524,0.120792 c -0.94033,0.774273 -1.9116376,1.367922 -3.0377153,1.82617 l -0.2378751,0.09327 -0.2238397,0.08883 c -0.2124462,0.08179 -0.3647688,0.156041 -0.5411303,0.300669 -0.1733895,0.215887 -0.1733431,0.215957 -0.1200458,0.716951 0.1891184,0.189119 0.1891184,0.189119 0.3959667,0.34721 0.5118077,0.378168 1.0185637,0.761852 1.519966,1.153733 0.6740723,0.527292 1.3522655,1.048128 2.0378255,1.560412 0.670542,0.500808 1.338256,1.005087 2.003474,1.512948 0.420089,0.320783 0.83941,0.642576 1.262882,0.958889 0.472593,0.352001 0.941034,0.708505 1.405462,1.071179 0.675631,0.527952 1.355015,1.049919 2.041888,1.563183 0.670542,0.500808 1.338256,1.005085 2.003473,1.512948 0.420088,0.320783 0.839409,0.642576 1.262884,0.958889 0.472591,0.351999 0.941032,0.708504 1.405459,1.071179 0.675633,0.527952 1.355026,1.049907 2.04189,1.563183 0.569084,0.425172 1.136969,0.851812 1.702065,1.282275 l 0.248219,0.189303 c 0.24903,0.18997 0.497929,0.380038 0.74687,0.570126 0.340189,0.25979 0.680617,0.519394 1.020943,0.779006 l 0.253391,0.193367 c 0.516132,0.393643 1.033116,0.786019 1.553209,1.174416 0.588694,0.439327 1.171849,0.884761 1.750453,1.337313 0.375045,0.294124 0.750521,0.587228 1.13268,0.872086 l 0.266871,0.196877 c 0.173631,0.128422 0.347357,0.256723 0.521183,0.384885 l 0.250805,0.182284 0.231227,0.170467 c 0.271177,0.19773 0.348826,0.248634 0.457651,0.575111 -0.144403,0.14623 -0.288873,0.292393 -0.433643,0.438261 l -0.180992,0.182284 -0.172127,0.174528 -0.173604,0.17453 c -0.165333,0.16692 -0.333267,0.328223 -0.511396,0.481475 C 32.495036,87.538656 31.951,88.072 31.407036,88.609236 l -0.171575,0.169726 c -0.300678,0.297441 -0.60127,0.595011 -0.901266,0.893142 -0.249986,0.248457 -0.500037,0.496937 -0.751303,0.744099 -0.310177,0.304413 -0.619926,0.608996 -0.928049,0.915489 -0.116788,0.116438 -0.233691,0.232848 -0.350717,0.349057 -0.168997,0.164974 -0.337977,0.329948 -0.504931,0.49699 l -0.152736,0.153474 c -0.182697,0.175547 -0.321366,0.333624 -0.47409,0.540021 -0.04774,0.302098 -0.06861,0.47047 0.11081,0.723785 0.17287,0.127246 0.172784,0.127246 0.41739,0.162154 l 0.299375,-7.38e-4 0.343518,0.0011 c 0.191117,-0.0015 0.382324,-0.0031 0.573448,-0.0032 0.351983,4.27e-4 0.703875,-2.94e-4 1.055851,-0.0022 0.374139,-0.0021 0.748192,-0.0028 1.122336,-0.0032 0.706373,-6.34e-4 1.412721,-0.0025 2.119088,-0.0053 0.810582,-0.0032 1.621173,-0.0052 2.431761,-0.0066 1.676186,-0.0029 3.352452,-0.0077 5.02863,-0.01404 l 0.20888,-7.39e-4 c -0.006,0.678842 -0.01078,1.357674 -0.01386,2.036534 -0.0015,0.346077 -0.0027,0.692234 -0.0055,1.038303 -0.0032,0.339046 -0.0059,0.678009 -0.007,1.017066 -2.82e-4,0.128912 -7.63e-4,0.257816 -0.0013,0.386732 l -0.0043,0.377868 v 0.349981 c -0.0018,0.3035 -0.02023,0.48693 0.154765,0.736897 0.309854,0.208646 0.309928,0.208663 1.347471,0.04635 1.094013,-0.179584 2.168848,-0.249595 3.275774,-0.251173 H 45.8539 c 1.238793,-0.0053 2.437956,0.06516 3.64607,0.369742 l 0.207218,0.05578 c 1.969392,0.530004 3.953136,1.469814 5.392463,2.952394 0.289328,0.31487 0.445829,0.50463 0.866176,0.61722 0.398261,-0.10667 0.583404,-0.26898 0.877628,-0.54963 1.346944,-1.29003 2.923165,-2.23767 4.696013,-2.80556 l 0.235844,-0.0726 c 1.353415,-0.423022 2.739836,-0.586803 4.153217,-0.575486 l 0.220146,0.0022 c 1.108588,0.0036 2.194423,0.04159 3.29166,0.218115 0.481382,0.07959 0.930528,0.147858 1.418573,0.101024 0.216055,-0.209237 0.2787,-0.339859 0.317844,-0.639198 l -0.0021,-0.3027 v -0.344254 c -0.0022,-0.186256 -0.0043,-0.37241 -0.0052,-0.558677 -7.36e-4,-0.328643 -0.0025,-0.65741 -0.0055,-0.986039 -0.0032,-0.340463 -0.0052,-0.680838 -0.0066,-1.021314 -0.0028,-0.662272 -0.0073,-1.324596 -0.01288,-1.986852 l -0.0018,-0.212758 c 1.665795,0.0084 3.331607,0.01506 4.997418,0.01903 0.809752,0.002 1.619432,0.0039 2.429175,0.0081 0.711299,0.0038 1.422554,0.007 2.133863,0.0081 0.375577,4.5e-4 0.751197,7.77e-4 1.126769,0.0032 0.359461,0.0027 0.718909,0.0048 1.078382,0.0046 0.132328,-2.14e-4 0.264745,-2.91e-4 0.397075,-1.84e-4 l 0.377312,0.0043 0.343518,-0.0017 c 0.299262,0.0011 0.299293,0.0011 0.5439,-0.04543 0.17629,-0.174334 0.176292,-0.174334 0.283677,-0.378237 -0.0085,-0.329861 -0.05312,-0.511206 -0.24951,-0.777528 L 84.404162,92.372403 84.182724,92.15429 83.949465,91.931742 C 83.606247,91.594706 83.266582,91.254067 82.90118,90.941263 82.343818,90.464851 81.82662,89.951272 81.309742,89.432011 81.202775,89.324529 81.095711,89.21723 80.988572,89.109917 80.706354,88.827456 80.424348,88.54488 80.142525,88.262024 79.850998,87.96942 79.559303,87.676891 79.267482,87.384579 78.639135,86.755209 78.011074,86.125571 77.383316,85.495613 L 77.65185,85.27085 c 0.178288,-0.149296 0.357499,-0.292754 0.542607,-0.433828 0.499348,-0.368672 0.993055,-0.743298 1.482105,-1.125477 0.674387,-0.527453 1.352911,-1.048474 2.038748,-1.560966 0.670543,-0.500807 1.338256,-1.005086 2.003475,-1.512948 0.420089,-0.320784 0.83941,-0.642576 1.262882,-0.95889 0.472594,-0.351999 0.941035,-0.708503 1.405462,-1.071179 0.675631,-0.52795 1.355015,-1.049917 2.041888,-1.563182 0.670542,-0.500807 1.338256,-1.005086 2.003473,-1.512947 0.42009,-0.320785 0.839411,-0.642577 1.262883,-0.958889 0.472593,-0.352001 0.941035,-0.708505 1.405461,-1.071179 0.675632,-0.527952 1.355024,-1.049908 2.041889,-1.563183 0.819613,-0.612345 1.634581,-1.230524 2.447828,-1.851293 0.421552,-0.321912 0.843481,-0.643459 1.265467,-0.9648 0.550539,-0.419224 1.10107,-0.838324 1.650352,-1.259189 0.51688,-0.396048 1.03316,-0.792805 1.55469,-1.182729 0.24841,-0.185346 0.49639,-0.371231 0.74391,-0.557753 0.13083,-0.0986 0.26185,-0.196964 0.39302,-0.295128 0.2362,-0.1736 0.47229,-0.34719 0.70697,-0.522845 l 0.23271,-0.174529 c 0.26954,-0.19526 0.53284,-0.384452 0.76238,-0.626455 0.10675,-0.3051 0.10675,-0.3051 0.0946,-0.567355 -0.23875,-0.358118 -0.23875,-0.358118 -1.04163,-0.6826 -0.35233,-0.139566 -0.6983,-0.285352 -1.03868,-0.45211 -2.36586,-1.272065 -4.038234,-3.069541 -4.858713,-5.65638 -1.117773,-3.944865 0.353885,-8.347847 2.169693,-11.842989 0.18209,-0.33335 0.32047,-0.63561 0.40446,-1.010233 0.0151,-0.307687 0.0151,-0.307687 -0.17397,-0.591364 -0.41173,-0.123522 -0.605654,-0.120988 -0.997679,0.06315 -0.779955,0.409468 -1.580953,0.776084 -2.386881,1.131386 -3.327217,1.419362 -7.311997,2.363963 -10.799329,0.980314 -2.538797,-1.079033 -4.187666,-2.961025 -5.224399,-5.490346 l -0.09437,-0.238983 -0.0903,-0.225318 c -0.08319,-0.213035 -0.159068,-0.367514 -0.304362,-0.544639 -0.215698,-0.173178 -0.215606,-0.173156 -0.716582,-0.119868 -0.189119,0.189118 -0.189095,0.189164 -0.335944,0.374912 l -0.172682,0.227164 -0.191703,0.251912 -0.203893,0.268902 c -0.348014,0.457752 -0.696364,0.915248 -1.040522,1.375911 -0.350538,0.470266 -0.705385,0.936543 -1.066376,1.398812 -0.527951,0.675633 -1.049906,1.355023 -1.563183,2.041888 -0.677744,0.907164 -1.362537,1.808803 -2.050015,2.708606 l -0.183948,0.240461 c -0.40956,0.535986 -0.819278,1.071851 -1.229268,1.607506 -0.0091,-0.595105 0.009,-1.184225 0.04949,-1.777972 l 0.02234,-0.311565 c 0.02465,-0.356327 0.04928,-0.71267 0.07442,-1.068962 0.02321,-0.328166 0.04626,-0.656369 0.06906,-0.984561 0.03956,-0.569526 0.07934,-1.139033 0.119308,-1.708531 0.05838,-0.831675 0.116368,-1.66339 0.174158,-2.495108 0.09384,-1.350904 0.187761,-2.70169 0.282015,-4.052564 l 0.01718,-0.24545 c 0.06303,-0.903302 0.126126,-1.806603 0.189304,-2.709896 l 0.01718,-0.246002 0.01718,-0.245818 0.03436,-0.491079 0.01718,-0.244894 c 0.09477,-1.354694 0.189133,-2.709452 0.283122,-4.0642 0.05785,-0.833905 0.116004,-1.667727 0.174714,-2.501573 0.04056,-0.576034 0.08071,-1.15221 0.120596,-1.728291 0.02304,-0.333443 0.04602,-0.666855 0.06962,-1.000258 0.09464,-1.329232 0.322969,-2.768871 0.159939,-4.098553 L 73.411872,19.58782 c -0.364791,-0.05211 -0.613318,0.0077 -0.939683,0.159568 -1.764024,0.833258 -3.505652,1.038162 -5.436231,0.986962 -2.026332,-0.09828 -4.197396,-1.280711 -5.565145,-2.756623 L 61.308246,17.791199 C 60.175825,16.527976 59.230147,15.175391 58.47941,13.652016 l -0.102501,-0.210542 c -0.390478,-0.797667 -0.753151,-1.601893 -1.047722,-2.440257 l -0.06815,-0.195213 C 57.146891,10.481997 57.03182,10.158452 56.924354,9.8321548 L 56.862112,9.6428517 56.738742,9.2860384 C 56.632113,8.9653776 56.632111,8.965377 56.485724,8.7135117 56.20068,8.5812889 56.022247,8.5036178 55.711522,8.565763 Z m 3.871572,41.876998 c 0.175175,-0.0035 0.352726,0.0017 0.534666,0.01792 0.677157,0.548175 1.179724,1.195316 1.601044,1.956933 0.02223,0.389158 0.02229,0.389148 -0.177853,0.711595 -0.892552,0.528545 -1.811488,0.749269 -2.810367,0.98253 -0.168585,0.04057 -0.337145,0.0812 -0.510842,0.123004 -0.53825,0.129346 -1.076918,0.256937 -1.615634,0.384332 -0.703449,0.167405 -1.406578,0.335643 -2.109668,0.504561 -0.171578,0.0412 -0.343113,0.08239 -0.51989,0.124852 -2.071107,0.501806 -4.128664,1.060923 -6.159096,1.709085 -0.328699,0.08548 -0.32878,0.08551 -0.862482,0.08551 -0.0045,0.104118 -0.0091,0.208175 -0.01386,0.315443 -0.129626,1.962024 -0.635464,3.850179 -1.095189,5.75537 -0.397493,1.647769 -0.774209,3.29437 -1.099066,4.958081 -0.622113,3.175757 -1.331229,6.334899 -2.021758,9.49637 -0.152702,0.700044 -0.302914,1.400665 -0.451742,2.101542 -0.03896,0.182355 -0.07805,0.364697 -0.118202,0.552581 -0.0737,0.34505 -0.146743,0.690225 -0.219221,1.035534 -0.635943,2.966202 -0.635894,2.96626 -1.029439,3.359807 -1.51939,0.15194 -2.965191,-0.269555 -4.248887,-1.108485 -0.401726,-0.636298 -0.22791,-1.426418 -0.07388,-2.130169 0.05811,-0.19851 0.11613,-0.396997 0.176007,-0.601523 0.312267,-1.106152 0.585172,-2.217376 0.838105,-3.338568 0.03676,-0.162617 0.0735,-0.325198 0.11137,-0.492743 0.11361,-0.504171 0.226677,-1.008447 0.339636,-1.512763 0.944936,-4.206434 1.952807,-8.393803 3.002072,-12.575455 0.10738,-0.428648 0.214746,-0.85731 0.322092,-1.285967 0.259328,-1.035381 0.518868,-2.070595 0.778636,-3.105865 -1.158216,0.344904 -2.316293,0.689843 -3.474497,1.034796 -0.393384,0.117152 -0.786756,0.234309 -1.180144,0.351456 -0.567933,0.169125 -1.135988,0.33818 -1.703913,0.507333 -0.173712,0.05172 -0.347379,0.103516 -0.526354,0.156799 -0.167268,0.04983 -0.334629,0.09974 -0.506964,0.151072 -0.161198,0.04788 -0.322226,0.09565 -0.48831,0.144979 -0.32646,0.09782 -0.652648,0.196999 -0.978282,0.297529 -0.15727,0.04836 -0.314453,0.09682 -0.47649,0.146642 -0.139426,0.04337 -0.278904,0.0868 -0.422561,0.131502 -0.658835,0.17602 -0.991176,0.188623 -1.628006,-0.07571 -0.610497,-0.72346 -1.167421,-1.484436 -1.324017,-2.432315 0.07853,-0.414175 0.0786,-0.414057 0.386365,-0.689247 0.419426,-0.268492 0.772799,-0.404328 1.250879,-0.539283 0.167306,-0.04803 0.33477,-0.09605 0.507147,-0.145534 0.180579,-0.05013 0.361174,-0.100352 0.547225,-0.151995 0.189867,-0.05391 0.379675,-0.10773 0.575297,-0.163264 0.399462,-0.113148 0.799138,-0.225614 1.198981,-0.337421 0.557607,-0.156159 1.114368,-0.314821 1.671038,-0.474274 2.491296,-0.710056 4.995541,-1.365222 7.505271,-2.006243 0.857176,-0.218938 1.713001,-0.442066 2.568058,-0.669118 1.891852,-0.501859 3.790072,-0.975367 5.691655,-1.438887 0.514782,-0.125552 1.029373,-0.251762 1.543974,-0.378055 1.579667,-0.386697 3.160764,-0.768016 4.746061,-1.131017 0.192625,-0.04533 0.192618,-0.04535 0.389134,-0.0916 0.532761,-0.119896 1.036364,-0.210868 1.561889,-0.221624 z m -6.483033,7.982684 c 0.352143,0.0059 0.712664,0.08478 1.09131,0.252095 0.562044,0.440522 0.981011,0.927783 1.300927,1.567617 0.108794,1.051617 -0.01449,1.664897 -0.627562,2.532414 -0.509142,0.610429 -0.959734,0.962432 -1.755256,1.098697 -0.770256,0.04504 -1.35239,0.02073 -1.975771,-0.462084 -0.690953,-0.777325 -0.890578,-1.382231 -0.854726,-2.435825 0.119154,-0.829531 0.412661,-1.527901 1.086138,-2.047983 0.584532,-0.322343 1.148035,-0.514808 1.73494,-0.504931 z m 24.007149,4.766377 h 1.85e-4 c 0.948097,0.0174 2.078506,0.466382 2.757362,1.145238 -0.08085,1.129664 -0.30248,2.160385 -0.611495,3.246594 -0.591528,2.178182 -1.084768,4.446003 -0.811695,6.715737 0.516078,0.344054 0.693153,0.40949 1.278581,0.467072 0.223822,0.02201 0.447748,0.04399 0.678352,0.06668 0,0.59314 -0.07958,0.958652 -0.48166,1.403061 -1.162446,1.02873 -1.883188,1.344106 -3.447535,1.307947 -0.668855,-0.0547 -1.057726,-0.153831 -1.585715,-0.57622 -0.78062,-1.089251 -0.810462,-2.157323 -0.778267,-3.457877 3.8e-4,-0.262979 2.72e-4,-0.26305 5.55e-4,-0.531341 0.01148,-0.963627 0.09814,-1.847188 0.346286,-2.77934 0.100674,-0.404062 0.100716,-0.404029 0.07553,-1.058991 -1.287127,1.975724 -2.432918,4.011655 -3.544126,6.090945 -0.09002,0.16824 -0.180042,0.336581 -0.27278,0.509919 -0.190727,0.357523 -0.380425,0.715577 -0.569202,1.074132 -0.0946,0.177642 -0.189171,0.355337 -0.286633,0.538362 -0.08491,0.160798 -0.169788,0.321528 -0.257268,0.487201 -0.229152,0.37235 -0.229099,0.372278 -0.584899,0.550179 -1.137304,0.09806 -1.884535,-0.09295 -2.846382,-0.711595 -0.490871,-0.490869 -0.409187,-0.767515 -0.411481,-1.456434 0.006,-1.901688 0.315255,-3.781794 0.589333,-5.659518 0.03553,-0.248308 0.07104,-0.496689 0.106386,-0.745024 0.02362,-0.165113 0.04714,-0.330195 0.07148,-0.500314 -1.799527,2.759762 -3.462062,5.574561 -5.05338,8.45862 -0.153817,0.278643 -0.307778,0.557064 -0.462269,0.835334 -0.136262,0.245648 -0.271653,0.491825 -0.40594,0.73856 -0.442933,0.799494 -0.443034,0.799492 -0.838659,0.997304 -1.068681,0.106876 -1.781199,-0.15268 -2.668528,-0.711595 -0.355802,-0.355803 -0.355731,-0.355806 -0.402985,-0.776236 0.0073,-1.370353 0.159471,-2.679052 0.402985,-4.027079 -0.06825,0.136822 -0.06814,0.136892 -0.137774,0.276475 -3.023197,6.015415 -3.023242,6.01537 -6.020579,7.078648 -0.850411,0.23421 -1.472142,0.171136 -2.314116,-0.06112 -0.776038,-0.459875 -1.125989,-0.959718 -1.489861,-1.779079 -0.11368,-0.587719 -0.110432,-1.148866 -0.08903,-1.745652 0.0036,-0.164857 0.0074,-0.329724 0.01106,-0.499576 0.09099,-2.775354 0.719857,-5.439867 1.323091,-8.139667 0.03081,-0.139482 0.0617,-0.279043 0.09345,-0.422746 0.0894,-0.402049 0.181076,-0.803534 0.273519,-1.204893 0.0267,-0.12089 0.0534,-0.241689 0.08089,-0.366231 0.179285,-0.762901 0.409301,-1.465151 0.975327,-2.031176 1.276649,0.06839 2.249926,0.502201 3.380123,1.0673 0.03468,1.130724 -0.06619,2.099243 -0.343884,3.192667 -0.03513,0.144832 -0.0702,0.289593 -0.106372,0.438813 -0.111286,0.457806 -0.22508,0.914896 -0.339085,1.372033 -0.112938,0.458501 -0.22525,0.917133 -0.337052,1.375911 -0.06933,0.283936 -0.139468,0.567664 -0.210357,0.851217 -0.271983,1.104194 -0.467998,2.190738 -0.464485,3.332291 -4.74e-4,0.151812 -8.49e-4,0.303638 -0.0013,0.460051 -0.01649,0.361755 -0.01652,0.361863 0.201494,0.540762 0.753725,-0.02062 1.125992,-0.0582 1.667159,-0.601153 0.12131,-0.1869 0.242538,-0.373868 0.367527,-0.566433 0.0672,-0.103446 0.13447,-0.206822 0.203707,-0.313411 2.116583,-3.341039 3.568166,-7.172564 4.901198,-10.875974 0.06194,-0.170505 0.124012,-0.340898 0.187826,-0.516567 0.05389,-0.150967 0.107744,-0.301925 0.163262,-0.457468 0.159138,-0.367398 0.159103,-0.367427 0.514905,-0.72323 1.2515,0.05109 2.34716,0.556694 3.380123,1.245338 0.0852,1.025515 -0.07258,1.925621 -0.31766,2.917854 -0.032,0.135772 -0.06398,0.271597 -0.09696,0.41148 -0.10122,0.42867 -0.204412,0.856772 -0.308056,1.284861 -0.104076,0.432578 -0.207728,0.865354 -0.310087,1.298343 -0.06349,0.268323 -0.127932,0.536311 -0.193552,0.804122 -0.07343,0.309242 -0.136332,0.621014 -0.196875,0.933033 l 0.177854,0.177853 c 0.09468,-0.160902 0.189449,-0.321794 0.287001,-0.487571 0.920178,-1.554131 1.881391,-3.074086 2.886643,-4.574487 0.23075,-0.34468 0.46013,-0.690261 0.689433,-1.035903 0.643537,-0.966746 1.29388,-1.929788 1.980571,-2.866511 0.09082,-0.124348 0.181604,-0.248825 0.275183,-0.376945 0.361122,-0.335473 0.567647,-0.347953 1.052895,-0.331882 0.938976,0.208842 1.780898,0.663422 2.612938,1.134158 -0.13209,1.499859 -0.428799,2.961964 -0.722862,4.436342 -0.07521,0.37891 -0.150142,0.757901 -0.224762,1.136927 -0.0671,0.34059 -0.134834,0.681039 -0.202601,1.021498 -0.105812,0.491265 -0.10577,0.4913 -0.0951,0.877073 0.05162,-0.08823 0.103236,-0.176531 0.156428,-0.267425 1.050628,-1.788769 2.129855,-3.553654 3.279286,-5.28091 0.0999,-0.150712 0.199771,-0.301453 0.302699,-0.456729 2.150066,-3.203616 2.149983,-3.203525 3.110667,-3.32361 z"
     style="fill:#d02130;fill-opacity:1;stroke-width:0.0945592" />
</svg>
